<?xml version="1.0" standalone="no"?>
<!DOCTYPE svg PUBLIC "-//W3C//DTD SVG 20010904//EN"
 "http://www.w3.org/TR/2001/REC-SVG-20010904/DTD/svg10.dtd">
<svg version="1.0" xmlns="http://www.w3.org/2000/svg"
 width="200" height="50" viewBox="0 220 1033 97"
 preserveAspectRatio="xMidYMid meet">

<g transform="translate(0.000000,607.000000) scale(0.100000,-0.100000)"
fill="#000000" stroke="none">
<path d="M745 4044 c-170 -36 -288 -110 -367 -231 -116 -175 -123 -386 -20
-570 70 -126 230 -232 382 -253 88 -12 200 0 267 30 25 11 50 17 57 13 6 -4
66 -51 134 -106 l123 -98 -7 -87 c-12 -172 45 -322 164 -434 103 -96 229 -147
362 -148 345 -1 605 335 516 666 -9 34 -16 64 -16 67 0 3 57 38 128 78 70 40
159 92 199 116 l72 43 63 -62 c291 -290 776 -164 892 231 10 33 16 91 16 145
-1 147 -54 273 -160 376 -224 219 -600 194 -788 -53 -51 -66 -70 -105 -93
-186 -23 -81 -24 -192 -3 -273 8 -33 14 -61 12 -63 -4 -2 -217 -127 -322 -188
l-80 -47 -60 58 c-97 93 -172 130 -310 152 -74 12 -177 -2 -257 -34 l-59 -24
-131 105 c-112 90 -130 108 -124 127 4 11 9 55 12 96 12 167 -73 347 -212 450
-110 81 -280 126 -390 104z m2590 -263 c82 -37 148 -104 188 -189 28 -59 32
-77 32 -153 0 -78 -3 -91 -37 -161 -45 -89 -95 -138 -185 -180 -56 -27 -75
-30 -153 -30 -78 0 -97 3 -152 30 -93 44 -141 91 -185 179 -34 70 -37 82 -37
162 0 75 4 94 31 153 91 194 306 276 498 189z m-1945 -601 l100 -80 -47 -60
c-27 -32 -55 -69 -64 -81 l-16 -23 -102 83 -102 82 46 52 c26 28 53 63 61 79
8 15 16 28 19 28 2 0 49 -36 105 -80z"/>
<path d="M5140 3949 c-262 -39 -434 -282 -392 -553 19 -123 48 -182 127 -262
95 -96 184 -134 330 -141 125 -7 200 7 290 52 78 39 103 59 156 125 123 152
131 421 18 586 -103 151 -309 226 -529 193z m214 -120 c110 -41 173 -153 183
-324 9 -152 -28 -266 -109 -342 -59 -54 -101 -66 -204 -61 -73 4 -90 8 -126
34 -102 71 -143 169 -143 339 0 91 5 122 25 179 59 164 213 236 374 175z"/>
<path d="M7391 3949 c-247 -38 -401 -223 -401 -482 0 -229 136 -405 357 -462
66 -17 196 -20 273 -5 136 26 274 131 330 252 89 195 44 458 -102 582 -50 43
-140 90 -198 104 -69 17 -188 22 -259 11z m202 -115 c60 -20 122 -81 155 -152
25 -54 27 -66 27 -207 0 -145 -1 -152 -29 -213 -34 -74 -100 -137 -160 -153
-22 -6 -74 -9 -116 -7 -64 2 -83 8 -122 33 -57 37 -99 93 -124 165 -26 75 -27
260 -1 342 18 59 64 128 108 160 64 47 176 61 262 32z"/>
<path d="M3880 3740 l0 -190 50 0 50 0 0 38 c0 55 25 151 47 181 38 51 74 61
231 61 l143 0 -61 -77 c-33 -43 -157 -202 -275 -353 l-215 -275 0 -57 0 -58
385 0 385 0 0 210 0 210 -48 0 -48 0 -11 -89 c-18 -142 -58 -200 -154 -220
-48 -11 -279 -16 -279 -6 0 2 62 84 138 182 76 98 198 255 270 348 l132 170 0
58 0 57 -370 0 -370 0 0 -190z"/>
<path d="M5832 3883 l3 -48 60 -3 c32 -2 65 -8 72 -14 10 -8 13 -85 13 -344 0
-333 0 -333 -22 -348 -14 -10 -44 -16 -75 -16 l-53 0 0 -50 0 -50 220 0 220 0
0 50 0 50 -55 0 c-42 0 -60 5 -75 20 -19 19 -20 33 -20 327 0 258 2 305 13
293 8 -8 101 -159 207 -335 106 -176 204 -339 219 -362 l26 -43 92 0 92 0 3
393 c2 316 6 397 17 410 9 12 29 17 67 17 l54 0 0 50 0 50 -215 0 -215 0 0
-50 0 -50 64 0 c42 0 67 -5 75 -14 8 -9 11 -92 9 -282 l-3 -268 -180 298 c-99
164 -188 313 -198 332 l-19 34 -200 0 -199 0 3 -47z"/>
<path d="M8070 3880 l0 -50 45 0 c26 0 59 -7 74 -15 16 -8 79 -79 141 -157 63
-79 120 -150 127 -160 13 -14 -2 -35 -138 -187 -83 -95 -164 -178 -180 -186
-15 -8 -46 -15 -69 -15 l-40 0 0 -50 0 -50 240 0 240 0 0 50 0 50 -54 0 c-60
0 -82 16 -72 52 7 27 157 203 173 203 13 0 173 -202 173 -219 0 -24 -25 -36
-77 -36 l-53 0 0 -50 0 -50 265 0 265 0 0 50 0 50 -49 0 c-79 0 -99 19 -330
310 l-68 86 126 137 c150 163 171 180 230 187 l46 5 3 48 3 47 -221 0 -221 0
3 -47 3 -48 55 -5 c39 -4 56 -10 58 -20 1 -9 -37 -58 -85 -109 l-88 -93 -73
90 c-86 107 -89 126 -19 130 l47 3 0 50 0 49 -240 0 -240 0 0 -50z"/>
<path d="M9120 3880 l0 -50 46 0 c30 0 56 -7 75 -21 16 -11 87 -107 159 -214
l130 -194 0 -130 c0 -155 -4 -161 -107 -161 l-63 0 0 -50 0 -50 265 0 265 0 0
50 0 50 -65 0 c-99 0 -105 9 -105 163 l0 123 62 85 c244 334 258 349 319 349
l39 0 0 50 0 50 -216 0 -215 0 3 -47 3 -48 60 -5 c47 -4 61 -9 63 -23 4 -18
-167 -268 -180 -264 -3 1 -37 45 -75 97 -128 176 -130 190 -33 190 l60 0 0 50
0 50 -245 0 -245 0 0 -50z"/>
</g>
</svg>
