<svg xmlns="http://www.w3.org/2000/svg" style="display: none;">
  <!-- Disinfection icon -->
  <symbol id="icon-disinfection" viewBox="0 0 64 64">
    <circle cx="32" cy="32" r="28" fill="none" stroke="currentColor" stroke-width="2"/>
    <path d="M32 16v32M16 32h32M22 22l20 20M42 22L22 42" stroke="currentColor" stroke-width="2" stroke-linecap="round"/>
  </symbol>

  <!-- Shield/Protection icon -->
  <symbol id="icon-shield" viewBox="0 0 64 64">
    <path d="M32 6L8 16v16c0 14 10 24 24 28 14-4 24-14 24-28V16L32 6z" fill="none" stroke="currentColor" stroke-width="2"/>
    <path d="M24 32l6 6 12-12" fill="none" stroke="currentColor" stroke-width="3" stroke-linecap="round" stroke-linejoin="round"/>
  </symbol>

  <!-- Eco/Leaf icon -->
  <symbol id="icon-eco" viewBox="0 0 64 64">
    <path d="M32 56c0-24 20-40 24-44-8 4-32 8-32 32" fill="none" stroke="currentColor" stroke-width="2"/>
    <path d="M32 56c0-24-20-40-24-44 8 4 32 8 32 32" fill="none" stroke="currentColor" stroke-width="2"/>
    <path d="M32 28v28" stroke="currentColor" stroke-width="2"/>
  </symbol>

  <!-- Timer/Fast icon -->
  <symbol id="icon-timer" viewBox="0 0 64 64">
    <circle cx="32" cy="36" r="24" fill="none" stroke="currentColor" stroke-width="2"/>
    <path d="M32 20v16l12 8" fill="none" stroke="currentColor" stroke-width="2" stroke-linecap="round"/>
    <path d="M28 6h8M32 6v6" stroke="currentColor" stroke-width="2" stroke-linecap="round"/>
  </symbol>

  <!-- Molecule/O3 icon -->
  <symbol id="icon-molecule" viewBox="0 0 64 64">
    <circle cx="20" cy="32" r="12" fill="none" stroke="currentColor" stroke-width="2"/>
    <circle cx="44" cy="20" r="10" fill="none" stroke="currentColor" stroke-width="2"/>
    <circle cx="44" cy="44" r="10" fill="none" stroke="currentColor" stroke-width="2"/>
    <line x1="30" y1="26" x2="36" y2="22" stroke="currentColor" stroke-width="2"/>
    <line x1="30" y1="38" x2="36" y2="42" stroke="currentColor" stroke-width="2"/>
  </symbol>

  <!-- Poultry/Bird icon -->
  <symbol id="icon-poultry" viewBox="0 0 64 64">
    <ellipse cx="32" cy="36" rx="20" ry="16" fill="none" stroke="currentColor" stroke-width="2"/>
    <circle cx="26" cy="28" r="8" fill="none" stroke="currentColor" stroke-width="2"/>
    <path d="M18 28l-6-4M34 28c2-4 8-4 10-2" fill="none" stroke="currentColor" stroke-width="2" stroke-linecap="round"/>
    <ellipse cx="24" cy="27" rx="1.5" ry="2" fill="currentColor"/>
    <path d="M26 52v6M38 52v6" stroke="currentColor" stroke-width="2" stroke-linecap="round"/>
  </symbol>

  <!-- Food/Apple icon -->
  <symbol id="icon-food" viewBox="0 0 64 64">
    <path d="M32 14c-12 0-20 10-20 24s8 20 20 20 20-6 20-20-8-24-20-24z" fill="none" stroke="currentColor" stroke-width="2"/>
    <path d="M32 14c0-6-4-8-4-8s4-2 8 2c2 2 1 6 1 6" fill="none" stroke="currentColor" stroke-width="2"/>
    <path d="M38 8c4-2 6 0 6 0" fill="none" stroke="currentColor" stroke-width="2" stroke-linecap="round"/>
  </symbol>

  <!-- Hotel/Building icon -->
  <symbol id="icon-hotel" viewBox="0 0 64 64">
    <rect x="12" y="16" width="40" height="42" fill="none" stroke="currentColor" stroke-width="2"/>
    <rect x="20" y="24" width="8" height="8" fill="none" stroke="currentColor" stroke-width="2"/>
    <rect x="36" y="24" width="8" height="8" fill="none" stroke="currentColor" stroke-width="2"/>
    <rect x="20" y="38" width="8" height="8" fill="none" stroke="currentColor" stroke-width="2"/>
    <rect x="36" y="38" width="8" height="8" fill="none" stroke="currentColor" stroke-width="2"/>
    <rect x="26" y="50" width="12" height="8" fill="none" stroke="currentColor" stroke-width="2"/>
    <path d="M28 8h8v8H28z" fill="none" stroke="currentColor" stroke-width="2"/>
  </symbol>

  <!-- Medical/Cross icon -->
  <symbol id="icon-medical" viewBox="0 0 64 64">
    <rect x="8" y="8" width="48" height="48" rx="8" fill="none" stroke="currentColor" stroke-width="2"/>
    <path d="M32 18v28M18 32h28" stroke="currentColor" stroke-width="4" stroke-linecap="round"/>
  </symbol>

  <!-- Water/Drop icon -->
  <symbol id="icon-water" viewBox="0 0 64 64">
    <path d="M32 8c0 0-20 20-20 36 0 12 9 16 20 16s20-4 20-16c0-16-20-36-20-36z" fill="none" stroke="currentColor" stroke-width="2"/>
    <path d="M24 40c0-8 8-16 8-16" fill="none" stroke="currentColor" stroke-width="2" stroke-linecap="round"/>
  </symbol>

  <!-- Check/Verified icon -->
  <symbol id="icon-check" viewBox="0 0 64 64">
    <circle cx="32" cy="32" r="28" fill="none" stroke="currentColor" stroke-width="2"/>
    <path d="M20 32l8 8 16-16" fill="none" stroke="currentColor" stroke-width="3" stroke-linecap="round" stroke-linejoin="round"/>
  </symbol>

  <!-- Economy/Money icon -->
  <symbol id="icon-economy" viewBox="0 0 64 64">
    <circle cx="32" cy="32" r="28" fill="none" stroke="currentColor" stroke-width="2"/>
    <path d="M32 16v32M24 24c0-4 4-6 8-6s8 2 8 6-4 6-8 8-8 4-8 8 4 6 8 6 8-2 8-6" fill="none" stroke="currentColor" stroke-width="2" stroke-linecap="round"/>
  </symbol>

  <!-- Universal/Globe icon -->
  <symbol id="icon-universal" viewBox="0 0 64 64">
    <circle cx="32" cy="32" r="28" fill="none" stroke="currentColor" stroke-width="2"/>
    <ellipse cx="32" cy="32" rx="12" ry="28" fill="none" stroke="currentColor" stroke-width="2"/>
    <path d="M4 32h56M8 20h48M8 44h48" fill="none" stroke="currentColor" stroke-width="2"/>
  </symbol>

  <!-- Auto/Gear icon -->
  <symbol id="icon-auto" viewBox="0 0 64 64">
    <circle cx="32" cy="32" r="12" fill="none" stroke="currentColor" stroke-width="2"/>
    <path d="M32 4v8M32 52v8M4 32h8M52 32h8M12 12l6 6M46 46l6 6M12 52l6-6M46 18l6-6" stroke="currentColor" stroke-width="2" stroke-linecap="round"/>
  </symbol>

  <!-- Phone icon -->
  <symbol id="icon-phone" viewBox="0 0 64 64">
    <path d="M14 10c-2 0-4 2-4 4v4c0 22 18 40 40 40h4c2 0 4-2 4-4v-8l-12-6-4 4c-2 2-6 0-12-6s-8-10-6-12l4-4-6-12h-8z" fill="none" stroke="currentColor" stroke-width="2"/>
  </symbol>

  <!-- Email icon -->
  <symbol id="icon-email" viewBox="0 0 64 64">
    <rect x="6" y="14" width="52" height="36" rx="4" fill="none" stroke="currentColor" stroke-width="2"/>
    <path d="M6 18l26 16 26-16" fill="none" stroke="currentColor" stroke-width="2"/>
  </symbol>

  <!-- Location icon -->
  <symbol id="icon-location" viewBox="0 0 64 64">
    <path d="M32 4C20 4 12 14 12 26c0 16 20 34 20 34s20-18 20-34c0-12-8-22-20-22z" fill="none" stroke="currentColor" stroke-width="2"/>
    <circle cx="32" cy="24" r="8" fill="none" stroke="currentColor" stroke-width="2"/>
  </symbol>

  <!-- Menu/Hamburger icon -->
  <symbol id="icon-menu" viewBox="0 0 64 64">
    <path d="M8 16h48M8 32h48M8 48h48" stroke="currentColor" stroke-width="4" stroke-linecap="round"/>
  </symbol>

  <!-- Close/X icon -->
  <symbol id="icon-close" viewBox="0 0 64 64">
    <path d="M16 16l32 32M48 16L16 48" stroke="currentColor" stroke-width="4" stroke-linecap="round"/>
  </symbol>

  <!-- Arrow right icon -->
  <symbol id="icon-arrow-right" viewBox="0 0 64 64">
    <path d="M12 32h40M36 16l16 16-16 16" fill="none" stroke="currentColor" stroke-width="3" stroke-linecap="round" stroke-linejoin="round"/>
  </symbol>

  <!-- WhatsApp icon -->
  <symbol id="icon-whatsapp" viewBox="0 0 64 64">
    <path d="M32 6C17.6 6 6 17.6 6 32c0 5.2 1.5 10 4.2 14L6 58l12.5-4c4 2.5 8.5 3.8 13.5 3.8C46.4 57.8 58 46.4 58 32S46.4 6 32 6z" fill="none" stroke="currentColor" stroke-width="2"/>
    <path d="M44 38c-1 3-4 5-7 5-2 0-5-1-10-5-4-4-6-7-7-10 0-3 1-5 2-6 1-1 2-1 3-1h2c1 0 2 1 3 3l2 4c0 1 0 2-1 3l-1 2c0 0 1 2 3 4s3 3 4 3l2-2c1-1 2-1 3 0l4 2c1 1 2 2 2 3v2z" fill="none" stroke="currentColor" stroke-width="2"/>
  </symbol>

  <!-- Telegram icon -->
  <symbol id="icon-telegram" viewBox="0 0 64 64">
    <circle cx="32" cy="32" r="28" fill="none" stroke="currentColor" stroke-width="2"/>
    <path d="M18 32l8 8 20-20M26 40v10l6-6" fill="none" stroke="currentColor" stroke-width="2" stroke-linecap="round" stroke-linejoin="round"/>
  </symbol>

  <!-- Factory/Industry icon -->
  <symbol id="icon-factory" viewBox="0 0 64 64">
    <path d="M4 56h56M8 56V32l12 8V28l12 8V24l12 8V20h12v36" fill="none" stroke="currentColor" stroke-width="2"/>
    <rect x="48" y="28" width="4" height="8" fill="none" stroke="currentColor" stroke-width="2"/>
    <rect x="16" y="44" width="8" height="12" fill="none" stroke="currentColor" stroke-width="2"/>
    <rect x="32" y="44" width="8" height="12" fill="none" stroke="currentColor" stroke-width="2"/>
  </symbol>

  <!-- Spray/Disinsection icon -->
  <symbol id="icon-spray" viewBox="0 0 64 64">
    <rect x="20" y="24" width="16" height="32" rx="2" fill="none" stroke="currentColor" stroke-width="2"/>
    <path d="M24 24v-8c0-2 2-4 4-4h8M36 24l8-8M44 16l4-4M44 16l4 4M48 20l4 0M40 12l4-4M40 12l4 4" fill="none" stroke="currentColor" stroke-width="2" stroke-linecap="round"/>
    <rect x="24" y="32" width="8" height="4" fill="currentColor"/>
  </symbol>

  <!-- Odor/Wind icon -->
  <symbol id="icon-odor" viewBox="0 0 64 64">
    <path d="M12 24c8-8 16 0 24-8M12 32c8-8 16 0 24-8M12 40c8-8 16 0 24-8M44 20c4 0 8 4 8 8s-4 8-8 8M48 36c4 0 8 4 8 8s-4 8-8 8" fill="none" stroke="currentColor" stroke-width="2" stroke-linecap="round"/>
  </symbol>

  <!-- Rat/Deratization icon -->
  <symbol id="icon-rat" viewBox="0 0 64 64">
    <ellipse cx="32" cy="36" rx="22" ry="14" fill="none" stroke="currentColor" stroke-width="2"/>
    <circle cx="16" cy="32" r="8" fill="none" stroke="currentColor" stroke-width="2"/>
    <circle cx="14" cy="30" r="2" fill="currentColor"/>
    <path d="M8 32c-4 0-4-8 0-8M54 36h8M54 36c0-4 1-4 4-4" fill="none" stroke="currentColor" stroke-width="2" stroke-linecap="round"/>
    <path d="M10 22c-2-4 0-8 4-8M16 24c0-4 4-8 8-6" fill="none" stroke="currentColor" stroke-width="2" stroke-linecap="round"/>
    <line x1="4" y1="4" x2="60" y2="60" stroke="currentColor" stroke-width="3"/>
  </symbol>

  <!-- Mercury/Thermometer icon -->
  <symbol id="icon-mercury" viewBox="0 0 64 64">
    <path d="M28 12v32a8 8 0 1 0 8 0V12a4 4 0 0 0-8 0z" fill="none" stroke="currentColor" stroke-width="2"/>
    <circle cx="32" cy="48" r="6" fill="currentColor"/>
    <rect x="30" y="28" width="4" height="16" fill="currentColor"/>
    <path d="M40 16h8M40 24h6M40 32h8" stroke="currentColor" stroke-width="2" stroke-linecap="round"/>
  </symbol>

  <!-- Mold/Fungus icon -->
  <symbol id="icon-mold" viewBox="0 0 64 64">
    <circle cx="32" cy="44" r="14" fill="none" stroke="currentColor" stroke-width="2"/>
    <circle cx="20" cy="28" r="10" fill="none" stroke="currentColor" stroke-width="2"/>
    <circle cx="44" cy="28" r="10" fill="none" stroke="currentColor" stroke-width="2"/>
    <circle cx="32" cy="16" r="8" fill="none" stroke="currentColor" stroke-width="2"/>
    <line x1="4" y1="4" x2="60" y2="60" stroke="currentColor" stroke-width="3"/>
  </symbol>

  <!-- Sterilization icon -->
  <symbol id="icon-sterilize" viewBox="0 0 64 64">
    <rect x="12" y="20" width="40" height="32" rx="4" fill="none" stroke="currentColor" stroke-width="2"/>
    <path d="M20 20v-8h24v8M24 36h16M32 28v16" stroke="currentColor" stroke-width="2" stroke-linecap="round"/>
    <circle cx="32" cy="36" r="12" fill="none" stroke="currentColor" stroke-width="2"/>
  </symbol>
</svg>
